<svg width="351" height="427" viewBox="0 0 351 427" fill="none" xmlns="http://www.w3.org/2000/svg">
<g id="undraw_Balloons_re_8ymj 1" clip-path="url(#clip0)">
<path id="Vector" d="M145.583 418.976H153.109L156.691 390.149H145.583V418.976Z" fill="#FFB8B8"/>
<path id="Vector_2" d="M143.663 416.535H158.485C160.989 416.538 163.39 417.527 165.161 419.286C166.932 421.044 167.928 423.428 167.931 425.915V426.22H143.663V416.535Z" fill="#2F2E41"/>
<path id="Vector_3" d="M48.5286 404.814L54.9801 408.663L73.001 385.786L63.4795 380.105L48.5286 404.814Z" fill="#FFB8B8"/>
<path id="Vector_4" d="M43.1257 410.042L48.1485 401.741L60.8536 409.321C62.9988 410.604 64.5438 412.68 65.1497 415.092C65.7555 417.505 65.3729 420.058 64.0856 422.191L63.9275 422.453L43.1257 410.042Z" fill="#2F2E41"/>
<path id="Vector_5" d="M143.535 412.935C142.017 411.4 138.245 386.189 132.665 347.902C130.724 334.588 128.888 321.986 127.375 312.336C114.425 340.603 93.4902 371.181 68.3331 398.554L68.1882 398.712L67.9895 398.631C59.9415 395.34 58.4436 394.577 54.8248 392.735C53.7441 392.185 52.473 391.537 50.7799 390.697L50.6863 390.625C49.909 389.743 57.0002 378.055 81.7938 338.314C92.5944 321.001 103.763 303.1 111.16 290.672L111.229 290.556L111.361 290.528C129.243 286.825 146.484 291.172 159.91 302.767L160.019 302.862L160.015 303.005C159.653 317.579 159.957 340.464 160.226 360.655C160.75 400.075 160.716 411.592 159.479 411.957L159.417 411.968C157.605 412.116 156.1 412.264 154.713 412.4C151.075 412.805 147.417 413.015 143.756 413.026L143.626 413.027L143.535 412.935Z" fill="#2F2E41"/>
<path id="Vector_6" d="M104.552 180.766C102.019 170.378 99.8722 158.662 104.65 149.095C107.966 142.456 120.23 140.221 127.261 142.613C134.291 145.004 139.375 151.492 141.61 158.567C143.846 165.641 143.586 173.264 142.612 180.618C129.681 180.372 116.751 180.125 104.552 180.766Z" fill="#2F2E41"/>
<path id="Vector_7" d="M126.372 180.763C134.7 180.763 141.45 174.06 141.45 165.791C141.45 157.522 134.7 150.819 126.372 150.819C118.045 150.819 111.294 157.522 111.294 165.791C111.294 174.06 118.045 180.763 126.372 180.763Z" fill="#FFB8B8"/>
<path id="Vector_8" d="M107.94 162.707C107.892 160.187 108.354 157.683 109.3 155.344C110.246 153.005 111.655 150.879 113.445 149.092C115.235 147.305 117.368 145.893 119.718 144.94C122.068 143.988 124.586 143.514 127.124 143.547C129.662 143.581 132.168 144.12 134.491 145.134C136.815 146.147 138.91 147.614 140.652 149.448C142.393 151.281 143.746 153.444 144.629 155.807C145.513 158.169 145.909 160.684 145.794 163.202C132.888 163.229 119.983 163.257 107.94 162.707Z" fill="#2F2E41"/>
<path id="Vector_9" d="M167.183 309.193C164.403 299.774 163.018 293.182 161.418 285.569C159.226 275.132 156.741 263.303 149.895 240.274L149.878 240.217L149.884 240.158C151.822 220.185 143.373 198.99 127.833 184.844C126.79 183.969 125.451 183.52 124.087 183.589C122.723 183.657 121.437 184.238 120.488 185.214C111.746 194.963 106.252 204.094 103.692 213.131L103.637 213.326C107.286 224.988 111.371 236.708 115.323 248.047L115.379 248.209L115.269 248.341C100.474 266.03 92.2912 289.674 92.7841 313.276C106.945 308.361 121.847 305.884 136.848 305.95C147.047 305.952 157.217 307.04 167.183 309.193V309.193Z" fill="#3F3D56"/>
<path id="Vector_10" opacity="0.1" d="M114.763 233.148L137.032 281.292L149.755 268.505L114.763 233.148Z" fill="black"/>
<path id="drugibalon" d="M236.124 49.0766C236.336 22.1438 218.643 0.171872 196.605 0.00100244C174.568 -0.169867 156.531 21.525 156.32 48.4578C156.128 72.8757 170.653 93.2151 189.79 96.9283L188.469 104.792L203.093 104.905L201.896 97.0222C221.089 93.6062 235.932 73.4944 236.124 49.0766Z" fill="#6C63FF"/>
<path id="Vector_11" d="M169.724 61.3637L164.199 61.3209C162.45 51.0236 162.532 40.5013 164.444 30.2324L169.969 30.2752C167.493 41.0057 167.412 51.3685 169.724 61.3637Z" fill="white"/>
<path id="Vector_12" d="M204.13 96.9882L187.556 96.8596L187.527 100.517L204.102 100.646L204.13 96.9882Z" fill="#3F3D56"/>
<path id="trecibalon" d="M312.908 63.9476C315.055 37.0985 298.987 13.9284 277.018 12.1959C255.049 10.4634 235.499 30.8243 233.351 57.6735C231.405 82.0154 244.43 103.333 263.252 108.393L261.368 116.142L275.948 117.292L275.32 109.345C294.71 107.298 310.961 88.2895 312.908 63.9476Z" fill="#FF6584"/>
<path id="Vector_13" d="M245.794 71.4966L240.286 71.0622C239.281 60.6672 240.12 50.1776 242.765 40.0704L248.273 40.5048C245.032 51.0323 244.206 61.3629 245.794 71.4966Z" fill="white"/>
<path id="Vector_14" d="M277.552 109.469L261.028 108.166L260.737 111.812L277.26 113.115L277.552 109.469Z" fill="#3F3D56"/>
<path id="Vector_15" d="M268.71 109.577L148.081 305.094L149.651 306.049L270.28 110.532L268.71 109.577Z" fill="#3F3D56"/>
<path id="prvibalon" d="M344.09 90.3244C356.852 66.5582 351.433 38.9451 331.987 28.6487C312.541 18.3524 286.431 29.2718 273.669 53.0379C262.099 74.5848 265.473 99.2932 280.695 111.393L275.853 117.752L288.758 124.585L291.378 117.049C309.979 122.858 332.52 111.871 344.09 90.3244Z" fill="#6C63FF"/>
<path id="Vector_16" d="M279.521 70.644L274.645 68.0626C277.903 58.1333 282.888 48.8482 289.376 40.6295L294.252 43.2108C287.048 51.5788 282.138 60.7232 279.521 70.644Z" fill="white"/>
<path id="Vector_17" d="M293.374 118.048L278.748 110.304L277.015 113.531L291.641 121.275L293.374 118.048Z" fill="#3F3D56"/>
<path id="Vector_18" d="M284.09 115.908L148.243 301.322L149.733 302.398L285.58 116.984L284.09 115.908Z" fill="#3F3D56"/>
<path id="Vector_19" d="M196.854 98.6214L156.477 324.381L158.29 324.7L198.667 98.9411L196.854 98.6214Z" fill="#3F3D56"/>
<path id="Vector_20" d="M164.412 284.323C163.512 284.26 162.636 284.003 161.847 283.568C161.058 283.134 160.374 282.533 159.844 281.807C159.314 281.082 158.951 280.25 158.78 279.37C158.608 278.49 158.634 277.584 158.853 276.715L140.504 264.776L150.969 260.287L166.79 272.312C168.236 272.775 169.46 273.749 170.231 275.049C171.002 276.35 171.266 277.885 170.973 279.366C170.68 280.846 169.851 282.169 168.641 283.082C167.432 283.996 165.927 284.437 164.412 284.323V284.323Z" fill="#FFB8B8"/>
<path id="Vector_21" d="M146.57 275.51C135.597 262.975 124.249 250.012 113.919 236.98L113.853 236.893L113.854 236.786C113.901 226.145 113.949 215.143 115.219 202.835C114.214 201.781 113.46 200.518 113.01 199.138C112.56 197.757 112.426 196.295 112.618 194.857C112.754 193.242 113.254 191.679 114.081 190.283C114.908 188.886 116.041 187.692 117.395 186.789C122.566 183.546 130.313 185.302 133.974 190.548C137.51 195.613 136.993 202.868 134.296 206.523L131.309 229.78L131.045 229.76L131.103 229.789L131.124 229.772L131.163 229.819L131.254 229.865C131.249 229.875 131.243 229.889 131.235 229.908C140.925 241.655 150.944 253.799 160.951 265.426L161.173 265.684L160.891 265.875C156.202 269.067 151.354 272.368 146.987 275.56L146.756 275.722L146.57 275.51Z" fill="#3F3D56"/>
</g>
<defs>
<clipPath id="clip0">
<rect width="351" height="427" fill="white"/>
</clipPath>
</defs>
</svg>
